<svg xmlns="http://www.w3.org/2000/svg" width="1200" height="630" viewBox="0 0 1200 630">
  <defs>
    <linearGradient id="bgGrad" x1="0%" y1="0%" x2="100%" y2="100%">
      <stop offset="0%" style="stop-color:#0d1117;stop-opacity:1" />
      <stop offset="100%" style="stop-color:#161b22;stop-opacity:1" />
    </linearGradient>
    <linearGradient id="accentGrad" x1="0%" y1="0%" x2="100%" y2="0%">
      <stop offset="0%" style="stop-color:#58a6ff;stop-opacity:1" />
      <stop offset="100%" style="stop-color:#79c0ff;stop-opacity:1" />
    </linearGradient>
  </defs>

  <!-- Background -->
  <rect width="1200" height="630" fill="url(#bgGrad)" />

  <!-- Subtle grid lines for terminal feel -->
  <line x1="0" y1="315" x2="1200" y2="315" stroke="#21262d" stroke-width="1" />
  <line x1="600" y1="0" x2="600" y2="630" stroke="#21262d" stroke-width="1" />

  <!-- Top accent bar -->
  <rect x="0" y="0" width="1200" height="4" fill="url(#accentGrad)" />

  <!-- Left side — table mock-up -->
  <rect x="72" y="160" width="460" height="310" rx="8" fill="#161b22" stroke="#21262d" stroke-width="1.5" />

  <!-- Table header row -->
  <rect x="72" y="160" width="460" height="36" rx="8" fill="#1c2128" />
  <rect x="72" y="188" width="460" height="8" fill="#1c2128" />
  <text x="95" y="183" font-family="-apple-system,BlinkMacSystemFont,'Segoe UI',monospace" font-size="11" fill="#58a6ff" font-weight="600">EVENT ID</text>
  <text x="183" y="183" font-family="-apple-system,BlinkMacSystemFont,'Segoe UI',monospace" font-size="11" fill="#8b949e" font-weight="600">TIME CREATED</text>
  <text x="350" y="183" font-family="-apple-system,BlinkMacSystemFont,'Segoe UI',monospace" font-size="11" fill="#8b949e" font-weight="600">LEVEL</text>
  <text x="430" y="183" font-family="-apple-system,BlinkMacSystemFont,'Segoe UI',monospace" font-size="11" fill="#8b949e" font-weight="600">CHANNEL</text>

  <!-- Table rows -->
  <rect x="72" y="196" width="460" height="28" fill="#0d1117" />
  <text x="95" y="215" font-family="monospace" font-size="12" fill="#e6edf3">4624</text>
  <text x="183" y="215" font-family="monospace" font-size="12" fill="#8b949e">2024-01-15 08:31:02</text>
  <text x="350" y="215" font-family="monospace" font-size="11" fill="#3fb950">Info</text>
  <text x="430" y="215" font-family="monospace" font-size="11" fill="#8b949e">Security</text>

  <rect x="72" y="224" width="460" height="28" fill="#161b22" />
  <rect x="72" y="224" width="3" height="28" fill="#f85149" />
  <text x="95" y="243" font-family="monospace" font-size="12" fill="#e6edf3">4625</text>
  <text x="183" y="243" font-family="monospace" font-size="12" fill="#8b949e">2024-01-15 08:31:45</text>
  <text x="350" y="243" font-family="monospace" font-size="11" fill="#f85149">Error</text>
  <text x="430" y="243" font-family="monospace" font-size="11" fill="#8b949e">Security</text>

  <rect x="72" y="252" width="460" height="28" fill="#0d1117" />
  <text x="95" y="271" font-family="monospace" font-size="12" fill="#e6edf3">4776</text>
  <text x="183" y="271" font-family="monospace" font-size="12" fill="#8b949e">2024-01-15 08:32:11</text>
  <text x="350" y="271" font-family="monospace" font-size="11" fill="#3fb950">Info</text>
  <text x="430" y="271" font-family="monospace" font-size="11" fill="#8b949e">Security</text>

  <rect x="72" y="280" width="460" height="28" fill="#161b22" />
  <rect x="72" y="280" width="3" height="28" fill="#d29922" />
  <text x="95" y="299" font-family="monospace" font-size="12" fill="#e6edf3">7045</text>
  <text x="183" y="299" font-family="monospace" font-size="12" fill="#8b949e">2024-01-15 09:12:04</text>
  <text x="350" y="299" font-family="monospace" font-size="11" fill="#d29922">Warning</text>
  <text x="430" y="299" font-family="monospace" font-size="11" fill="#8b949e">System</text>

  <rect x="72" y="308" width="460" height="28" fill="#0d1117" />
  <text x="95" y="327" font-family="monospace" font-size="12" fill="#e6edf3">4688</text>
  <text x="183" y="327" font-family="monospace" font-size="12" fill="#8b949e">2024-01-15 09:15:33</text>
  <text x="350" y="327" font-family="monospace" font-size="11" fill="#3fb950">Info</text>
  <text x="430" y="327" font-family="monospace" font-size="11" fill="#8b949e">Security</text>

  <rect x="72" y="336" width="460" height="28" fill="#161b22" />
  <text x="95" y="355" font-family="monospace" font-size="12" fill="#e6edf3">1102</text>
  <text x="183" y="355" font-family="monospace" font-size="12" fill="#8b949e">2024-01-15 09:21:57</text>
  <text x="350" y="355" font-family="monospace" font-size="11" fill="#3fb950">Info</text>
  <text x="430" y="355" font-family="monospace" font-size="11" fill="#8b949e">Security</text>

  <rect x="72" y="364" width="460" height="28" fill="#0d1117" />
  <rect x="72" y="364" width="3" height="28" fill="#f85149" />
  <text x="95" y="383" font-family="monospace" font-size="12" fill="#e6edf3">4625</text>
  <text x="183" y="383" font-family="monospace" font-size="12" fill="#8b949e">2024-01-15 09:33:18</text>
  <text x="350" y="383" font-family="monospace" font-size="11" fill="#f85149">Error</text>
  <text x="430" y="383" font-family="monospace" font-size="11" fill="#8b949e">Security</text>

  <rect x="72" y="392" width="460" height="28" fill="#161b22" />
  <text x="95" y="411" font-family="monospace" font-size="12" fill="#e6edf3">4648</text>
  <text x="183" y="411" font-family="monospace" font-size="12" fill="#8b949e">2024-01-15 09:44:02</text>
  <text x="350" y="411" font-family="monospace" font-size="11" fill="#3fb950">Info</text>
  <text x="430" y="411" font-family="monospace" font-size="11" fill="#8b949e">Security</text>

  <rect x="72" y="420" width="460" height="50" rx="0" fill="#0d1117" />
  <rect x="72" y="452" width="460" height="18" rx="0" fill="url(#bgGrad)" opacity="0.9" />

  <!-- Right side — headline -->
  <text x="608" y="220" font-family="-apple-system,BlinkMacSystemFont,'Segoe UI',sans-serif" font-size="52" font-weight="800" fill="#e6edf3" letter-spacing="-1">EVTX Inspector</text>

  <!-- Tagline -->
  <text x="608" y="268" font-family="-apple-system,BlinkMacSystemFont,'Segoe UI',sans-serif" font-size="22" fill="#58a6ff" letter-spacing="-0.3">Online Windows Event Explorer</text>

  <!-- Divider -->
  <line x1="608" y1="292" x2="1128" y2="292" stroke="#21262d" stroke-width="1.5" />

  <!-- Feature bullets -->
  <circle cx="618" cy="326" r="4" fill="#58a6ff" />
  <text x="634" y="331" font-family="-apple-system,BlinkMacSystemFont,'Segoe UI',sans-serif" font-size="17" fill="#8b949e">Parse .evtx and CSV files — no upload required</text>

  <circle cx="618" cy="362" r="4" fill="#3fb950" />
  <text x="634" y="367" font-family="-apple-system,BlinkMacSystemFont,'Segoe UI',sans-serif" font-size="17" fill="#8b949e">Flag rows: Suspicious · Reviewed · Noteworthy</text>

  <circle cx="618" cy="398" r="4" fill="#d29922" />
  <text x="634" y="403" font-family="-apple-system,BlinkMacSystemFont,'Segoe UI',sans-serif" font-size="17" fill="#8b949e">Filter by event ID, time range, or keyword</text>

  <circle cx="618" cy="434" r="4" fill="#a371f7" />
  <text x="634" y="439" font-family="-apple-system,BlinkMacSystemFont,'Segoe UI',sans-serif" font-size="17" fill="#8b949e">100% local · zero telemetry · free forever</text>

  <!-- URL badge at bottom -->
  <rect x="608" y="490" width="520" height="38" rx="6" fill="#1c2128" stroke="#30363d" stroke-width="1" />
  <text x="868" y="515" font-family="monospace" font-size="14" fill="#484f58" text-anchor="middle">evtx-inspector.apurvashelar303.workers.dev</text>

  <!-- Bottom border -->
  <rect x="0" y="626" width="1200" height="4" fill="url(#accentGrad)" />
</svg>
